<svg xmlns="http://www.w3.org/2000/svg" width="486" height="262" viewBox="0 0 486 262" fill="none">
<rect x="20.7217" y="221.464" width="444.224" height="1.29511" fill="#DCDDE0"/>
<rect x="20.7217" y="147.643" width="444.224" height="0.647556" fill="#DCDDE0"/>
<rect x="20.7217" y="73.8213" width="444.224" height="0.647556" fill="#DCDDE0"/>
<rect x="20.7217" width="444.224" height="0.647556" fill="#DCDDE0"/>
<path d="M441.425 158.838C441.425 157.692 441.611 156.798 441.985 156.158C442.358 155.512 443.011 155.188 443.945 155.188C444.871 155.188 445.521 155.512 445.895 156.158C446.268 156.798 446.455 157.692 446.455 158.838C446.455 160.005 446.268 160.912 445.895 161.558C445.521 162.205 444.871 162.528 443.945 162.528C443.011 162.528 442.358 162.205 441.985 161.558C441.611 160.912 441.425 160.005 441.425 158.838ZM445.555 158.838C445.555 158.258 445.515 157.768 445.435 157.368C445.361 156.962 445.205 156.635 444.965 156.388C444.731 156.142 444.391 156.018 443.945 156.018C443.491 156.018 443.145 156.142 442.905 156.388C442.671 156.635 442.515 156.962 442.435 157.368C442.361 157.768 442.325 158.258 442.325 158.838C442.325 159.438 442.361 159.942 442.435 160.348C442.515 160.755 442.671 161.082 442.905 161.328C443.145 161.575 443.491 161.698 443.945 161.698C444.391 161.698 444.731 161.575 444.965 161.328C445.205 161.082 445.361 160.755 445.435 160.348C445.515 159.942 445.555 159.438 445.555 158.838ZM448.144 162.588C447.971 162.588 447.824 162.528 447.704 162.408C447.584 162.288 447.524 162.142 447.524 161.968C447.524 161.795 447.584 161.648 447.704 161.528C447.824 161.408 447.971 161.348 448.144 161.348C448.311 161.348 448.451 161.408 448.564 161.528C448.684 161.648 448.744 161.795 448.744 161.968C448.744 162.142 448.684 162.288 448.564 162.408C448.451 162.528 448.311 162.588 448.144 162.588ZM449.804 158.838C449.804 157.692 449.99 156.798 450.364 156.158C450.737 155.512 451.39 155.188 452.324 155.188C453.25 155.188 453.9 155.512 454.274 156.158C454.647 156.798 454.834 157.692 454.834 158.838C454.834 160.005 454.647 160.912 454.274 161.558C453.9 162.205 453.25 162.528 452.324 162.528C451.39 162.528 450.737 162.205 450.364 161.558C449.99 160.912 449.804 160.005 449.804 158.838ZM453.934 158.838C453.934 158.258 453.894 157.768 453.814 157.368C453.74 156.962 453.584 156.635 453.344 156.388C453.11 156.142 452.77 156.018 452.324 156.018C451.87 156.018 451.524 156.142 451.284 156.388C451.05 156.635 450.894 156.962 450.814 157.368C450.74 157.768 450.704 158.258 450.704 158.838C450.704 159.438 450.74 159.942 450.814 160.348C450.894 160.755 451.05 161.082 451.284 161.328C451.524 161.575 451.87 161.698 452.324 161.698C452.77 161.698 453.11 161.575 453.344 161.328C453.584 161.082 453.74 160.755 453.814 160.348C453.894 159.942 453.934 159.438 453.934 158.838ZM455.843 156.128V155.298H457.723V162.528H456.803V156.128H455.843ZM459.286 158.838C459.286 157.692 459.473 156.798 459.846 156.158C460.219 155.512 460.873 155.188 461.806 155.188C462.733 155.188 463.383 155.512 463.756 156.158C464.129 156.798 464.316 157.692 464.316 158.838C464.316 160.005 464.129 160.912 463.756 161.558C463.383 162.205 462.733 162.528 461.806 162.528C460.873 162.528 460.219 162.205 459.846 161.558C459.473 160.912 459.286 160.005 459.286 158.838ZM463.416 158.838C463.416 158.258 463.376 157.768 463.296 157.368C463.223 156.962 463.066 156.635 462.826 156.388C462.593 156.142 462.253 156.018 461.806 156.018C461.353 156.018 461.006 156.142 460.766 156.388C460.533 156.635 460.376 156.962 460.296 157.368C460.223 157.768 460.186 158.258 460.186 158.838C460.186 159.438 460.223 159.942 460.296 160.348C460.376 160.755 460.533 161.082 460.766 161.328C461.006 161.575 461.353 161.698 461.806 161.698C462.253 161.698 462.593 161.575 462.826 161.328C463.066 161.082 463.223 160.755 463.296 160.348C463.376 159.942 463.416 159.438 463.416 158.838Z" fill="#8E9093"/>
<path d="M441.952 85.0165C441.952 83.8699 442.139 82.9765 442.512 82.3365C442.885 81.6899 443.539 81.3665 444.472 81.3665C445.399 81.3665 446.049 81.6899 446.422 82.3365C446.795 82.9765 446.982 83.8699 446.982 85.0165C446.982 86.1832 446.795 87.0899 446.422 87.7365C446.049 88.3832 445.399 88.7065 444.472 88.7065C443.539 88.7065 442.885 88.3832 442.512 87.7365C442.139 87.0899 441.952 86.1832 441.952 85.0165ZM446.082 85.0165C446.082 84.4365 446.042 83.9465 445.962 83.5465C445.889 83.1399 445.732 82.8132 445.492 82.5665C445.259 82.3199 444.919 82.1965 444.472 82.1965C444.019 82.1965 443.672 82.3199 443.432 82.5665C443.199 82.8132 443.042 83.1399 442.962 83.5465C442.889 83.9465 442.852 84.4365 442.852 85.0165C442.852 85.6165 442.889 86.1199 442.962 86.5265C443.042 86.9332 443.199 87.2599 443.432 87.5065C443.672 87.7532 444.019 87.8765 444.472 87.8765C444.919 87.8765 445.259 87.7532 445.492 87.5065C445.732 87.2599 445.889 86.9332 445.962 86.5265C446.042 86.1199 446.082 85.6165 446.082 85.0165ZM448.671 88.7665C448.498 88.7665 448.351 88.7065 448.231 88.5865C448.111 88.4665 448.051 88.3199 448.051 88.1465C448.051 87.9732 448.111 87.8265 448.231 87.7065C448.351 87.5865 448.498 87.5265 448.671 87.5265C448.838 87.5265 448.978 87.5865 449.091 87.7065C449.211 87.8265 449.271 87.9732 449.271 88.1465C449.271 88.3199 449.211 88.4665 449.091 88.5865C448.978 88.7065 448.838 88.7665 448.671 88.7665ZM450.331 85.0165C450.331 83.8699 450.518 82.9765 450.891 82.3365C451.264 81.6899 451.918 81.3665 452.851 81.3665C453.778 81.3665 454.428 81.6899 454.801 82.3365C455.174 82.9765 455.361 83.8699 455.361 85.0165C455.361 86.1832 455.174 87.0899 454.801 87.7365C454.428 88.3832 453.778 88.7065 452.851 88.7065C451.918 88.7065 451.264 88.3832 450.891 87.7365C450.518 87.0899 450.331 86.1832 450.331 85.0165ZM454.461 85.0165C454.461 84.4365 454.421 83.9465 454.341 83.5465C454.268 83.1399 454.111 82.8132 453.871 82.5665C453.638 82.3199 453.298 82.1965 452.851 82.1965C452.398 82.1965 452.051 82.3199 451.811 82.5665C451.578 82.8132 451.421 83.1399 451.341 83.5465C451.268 83.9465 451.231 84.4365 451.231 85.0165C451.231 85.6165 451.268 86.1199 451.341 86.5265C451.421 86.9332 451.578 87.2599 451.811 87.5065C452.051 87.7532 452.398 87.8765 452.851 87.8765C453.298 87.8765 453.638 87.7532 453.871 87.5065C454.111 87.2599 454.268 86.9332 454.341 86.5265C454.421 86.1199 454.461 85.6165 454.461 85.0165ZM456.37 82.3065V81.4765H458.25V88.7065H457.33V82.3065H456.37ZM459.703 87.9765C460.55 87.2965 461.213 86.7399 461.693 86.3065C462.173 85.8665 462.577 85.4099 462.903 84.9365C463.237 84.4565 463.403 83.9865 463.403 83.5265C463.403 83.0932 463.297 82.7532 463.083 82.5065C462.877 82.2532 462.54 82.1265 462.073 82.1265C461.62 82.1265 461.267 82.2699 461.013 82.5565C460.767 82.8365 460.633 83.2132 460.613 83.6865H459.733C459.76 82.9399 459.987 82.3632 460.413 81.9565C460.84 81.5499 461.39 81.3465 462.063 81.3465C462.75 81.3465 463.293 81.5365 463.693 81.9165C464.1 82.2965 464.303 82.8199 464.303 83.4865C464.303 84.0399 464.137 84.5799 463.803 85.1065C463.477 85.6265 463.103 86.0865 462.683 86.4865C462.263 86.8799 461.727 87.3399 461.073 87.8665H464.513V88.6265H459.703V87.9765Z" fill="#8E9093"/>
<path d="M441.415 11.1953C441.415 10.0486 441.602 9.15525 441.975 8.51525C442.348 7.86859 443.002 7.54525 443.935 7.54525C444.862 7.54525 445.512 7.86859 445.885 8.51525C446.258 9.15525 446.445 10.0486 446.445 11.1953C446.445 12.3619 446.258 13.2686 445.885 13.9153C445.512 14.5619 444.862 14.8853 443.935 14.8853C443.002 14.8853 442.348 14.5619 441.975 13.9153C441.602 13.2686 441.415 12.3619 441.415 11.1953ZM445.545 11.1953C445.545 10.6153 445.505 10.1253 445.425 9.72525C445.352 9.31859 445.195 8.99192 444.955 8.74525C444.722 8.49859 444.382 8.37525 443.935 8.37525C443.482 8.37525 443.135 8.49859 442.895 8.74525C442.662 8.99192 442.505 9.31859 442.425 9.72525C442.352 10.1253 442.315 10.6153 442.315 11.1953C442.315 11.7953 442.352 12.2986 442.425 12.7053C442.505 13.1119 442.662 13.4386 442.895 13.6853C443.135 13.9319 443.482 14.0553 443.935 14.0553C444.382 14.0553 444.722 13.9319 444.955 13.6853C445.195 13.4386 445.352 13.1119 445.425 12.7053C445.505 12.2986 445.545 11.7953 445.545 11.1953ZM448.134 14.9453C447.961 14.9453 447.814 14.8853 447.694 14.7653C447.574 14.6453 447.514 14.4986 447.514 14.3253C447.514 14.1519 447.574 14.0053 447.694 13.8853C447.814 13.7653 447.961 13.7053 448.134 13.7053C448.301 13.7053 448.441 13.7653 448.554 13.8853C448.674 14.0053 448.734 14.1519 448.734 14.3253C448.734 14.4986 448.674 14.6453 448.554 14.7653C448.441 14.8853 448.301 14.9453 448.134 14.9453ZM449.794 11.1953C449.794 10.0486 449.98 9.15525 450.354 8.51525C450.727 7.86859 451.38 7.54525 452.314 7.54525C453.24 7.54525 453.89 7.86859 454.264 8.51525C454.637 9.15525 454.824 10.0486 454.824 11.1953C454.824 12.3619 454.637 13.2686 454.264 13.9153C453.89 14.5619 453.24 14.8853 452.314 14.8853C451.38 14.8853 450.727 14.5619 450.354 13.9153C449.98 13.2686 449.794 12.3619 449.794 11.1953ZM453.924 11.1953C453.924 10.6153 453.884 10.1253 453.804 9.72525C453.73 9.31859 453.574 8.99192 453.334 8.74525C453.1 8.49859 452.76 8.37525 452.314 8.37525C451.86 8.37525 451.514 8.49859 451.274 8.74525C451.04 8.99192 450.884 9.31859 450.804 9.72525C450.73 10.1253 450.694 10.6153 450.694 11.1953C450.694 11.7953 450.73 12.2986 450.804 12.7053C450.884 13.1119 451.04 13.4386 451.274 13.6853C451.514 13.9319 451.86 14.0553 452.314 14.0553C452.76 14.0553 453.1 13.9319 453.334 13.6853C453.574 13.4386 453.73 13.1119 453.804 12.7053C453.884 12.2986 453.924 11.7953 453.924 11.1953ZM455.833 8.48525V7.65525H457.713V14.8853H456.793V8.48525H455.833ZM459.056 13.2753V12.5853L462.566 7.72525H463.656V12.4853H464.656V13.2753H463.656V14.8853H462.756V13.2753H459.056ZM462.796 8.67525L460.106 12.4853H462.796V8.67525Z" fill="#8E9093"/>
<g opacity="0.2">
<rect x="20.7217" y="195.562" width="10.3609" height="27.1974" fill="#EA4C1C"/>
<rect x="33.6729" y="182.611" width="10.3609" height="40.1485" fill="#24FFBD"/>
<rect x="46.624" y="211.104" width="10.3609" height="11.656" fill="#EA4C1C"/>
<rect x="59.5752" y="195.562" width="10.3609" height="27.1974" fill="#24FFBD"/>
<rect x="72.5264" y="200.743" width="10.3609" height="22.0169" fill="#EA4C1C"/>
<rect x="85.4775" y="195.562" width="10.3609" height="27.1974" fill="#EA4C1C"/>
<rect x="98.4287" y="211.104" width="10.3609" height="11.656" fill="#24FFBD"/>
<rect x="111.379" y="185.201" width="10.3609" height="37.5583" fill="#24FFBD"/>
<rect x="124.331" y="211.104" width="10.3609" height="11.656" fill="#24FFBD"/>
<rect x="137.282" y="204.628" width="10.3609" height="18.1316" fill="#EA4C1C"/>
<rect x="150.233" y="187.792" width="10.3609" height="34.968" fill="#24FFBD"/>
<rect x="163.184" y="182.611" width="10.3609" height="40.1485" fill="#EA4C1C"/>
<rect x="176.135" y="214.989" width="10.3609" height="7.77068" fill="#EA4C1C"/>
<rect x="189.086" y="176.136" width="10.3609" height="46.6241" fill="#24FFBD"/>
<rect x="202.038" y="195.562" width="10.3609" height="27.1974" fill="#24FFBD"/>
<rect x="214.989" y="180.021" width="10.3609" height="42.7387" fill="#24FFBD"/>
<rect x="227.939" y="185.201" width="10.3609" height="37.5583" fill="#24FFBD"/>
<rect x="240.891" y="158.004" width="10.3609" height="64.7556" fill="#EA4C1C"/>
<rect x="253.842" y="165.774" width="10.3609" height="56.985" fill="#24FFBD"/>
<rect x="266.793" y="208.513" width="10.3609" height="14.2462" fill="#24FFBD"/>
<rect x="279.744" y="191.677" width="10.3609" height="31.0827" fill="#EA4C1C"/>
<rect x="292.695" y="208.513" width="10.3609" height="14.2462" fill="#24FFBD"/>
<rect x="305.646" y="187.792" width="10.3609" height="34.968" fill="#24FFBD"/>
<rect x="318.598" y="169.66" width="10.3609" height="53.0996" fill="#24FFBD"/>
<path d="M331.549 204.628H341.91V222.76H331.549V204.628Z" fill="#EA4C1C"/>
<rect x="344.5" y="182.611" width="10.3609" height="40.1485" fill="#24FFBD"/>
<rect x="357.451" y="199.447" width="10.3609" height="23.312" fill="#24FFBD"/>
<rect x="370.402" y="187.792" width="10.3609" height="34.968" fill="#EA4C1C"/>
<rect x="383.354" y="176.136" width="10.3609" height="46.6241" fill="#24FFBD"/>
<rect x="396.304" y="211.104" width="10.3609" height="11.656" fill="#EA4C1C"/>
<rect x="409.256" y="199.447" width="10.3609" height="23.312" fill="#24FFBD"/>
</g>
<path d="M254.816 247H253.906L250.246 241.45V247H249.336V240.02H250.246L253.906 245.56V240.02H254.816V247ZM258.758 247.09C258.244 247.09 257.778 246.973 257.358 246.74C256.944 246.507 256.618 246.177 256.378 245.75C256.144 245.317 256.028 244.817 256.028 244.25C256.028 243.69 256.148 243.197 256.388 242.77C256.634 242.337 256.968 242.007 257.388 241.78C257.808 241.547 258.278 241.43 258.798 241.43C259.318 241.43 259.788 241.547 260.208 241.78C260.628 242.007 260.958 242.333 261.198 242.76C261.444 243.187 261.568 243.683 261.568 244.25C261.568 244.817 261.441 245.317 261.188 245.75C260.941 246.177 260.604 246.507 260.178 246.74C259.751 246.973 259.278 247.09 258.758 247.09ZM258.758 246.29C259.084 246.29 259.391 246.213 259.678 246.06C259.964 245.907 260.194 245.677 260.368 245.37C260.548 245.063 260.638 244.69 260.638 244.25C260.638 243.81 260.551 243.437 260.378 243.13C260.204 242.823 259.978 242.597 259.698 242.45C259.418 242.297 259.114 242.22 258.788 242.22C258.454 242.22 258.148 242.297 257.868 242.45C257.594 242.597 257.374 242.823 257.208 243.13C257.041 243.437 256.958 243.81 256.958 244.25C256.958 244.697 257.038 245.073 257.198 245.38C257.364 245.687 257.584 245.917 257.858 246.07C258.131 246.217 258.431 246.29 258.758 246.29ZM264.804 246.16L266.504 241.52H267.474L265.324 247H264.264L262.114 241.52H263.094L264.804 246.16ZM270.866 241.59C270.912 240.977 271.149 240.497 271.576 240.15C272.002 239.803 272.556 239.63 273.236 239.63C273.689 239.63 274.079 239.713 274.406 239.88C274.739 240.04 274.989 240.26 275.156 240.54C275.329 240.82 275.416 241.137 275.416 241.49C275.416 241.903 275.296 242.26 275.056 242.56C274.822 242.86 274.516 243.053 274.136 243.14V243.19C274.569 243.297 274.912 243.507 275.166 243.82C275.419 244.133 275.546 244.543 275.546 245.05C275.546 245.43 275.459 245.773 275.286 246.08C275.112 246.38 274.852 246.617 274.506 246.79C274.159 246.963 273.742 247.05 273.256 247.05C272.549 247.05 271.969 246.867 271.516 246.5C271.062 246.127 270.809 245.6 270.756 244.92H271.636C271.682 245.32 271.846 245.647 272.126 245.9C272.406 246.153 272.779 246.28 273.246 246.28C273.712 246.28 274.066 246.16 274.306 245.92C274.552 245.673 274.676 245.357 274.676 244.97C274.676 244.47 274.509 244.11 274.176 243.89C273.842 243.67 273.339 243.56 272.666 243.56H272.436V242.8H272.676C273.289 242.793 273.752 242.693 274.066 242.5C274.379 242.3 274.536 241.993 274.536 241.58C274.536 241.227 274.419 240.943 274.186 240.73C273.959 240.517 273.632 240.41 273.206 240.41C272.792 240.41 272.459 240.517 272.206 240.73C271.952 240.943 271.802 241.23 271.756 241.59H270.866ZM276.774 243.31C276.774 242.163 276.961 241.27 277.334 240.63C277.708 239.983 278.361 239.66 279.294 239.66C280.221 239.66 280.871 239.983 281.244 240.63C281.618 241.27 281.804 242.163 281.804 243.31C281.804 244.477 281.618 245.383 281.244 246.03C280.871 246.677 280.221 247 279.294 247C278.361 247 277.708 246.677 277.334 246.03C276.961 245.383 276.774 244.477 276.774 243.31ZM280.904 243.31C280.904 242.73 280.864 242.24 280.784 241.84C280.711 241.433 280.554 241.107 280.314 240.86C280.081 240.613 279.741 240.49 279.294 240.49C278.841 240.49 278.494 240.613 278.254 240.86C278.021 241.107 277.864 241.433 277.784 241.84C277.711 242.24 277.674 242.73 277.674 243.31C277.674 243.91 277.711 244.413 277.784 244.82C277.864 245.227 278.021 245.553 278.254 245.8C278.494 246.047 278.841 246.17 279.294 246.17C279.741 246.17 280.081 246.047 280.314 245.8C280.554 245.553 280.711 245.227 280.784 244.82C280.864 244.413 280.904 243.91 280.904 243.31Z" fill="#8E9093"/>
<path d="M406.446 240.03C407.206 240.03 407.863 240.173 408.416 240.46C408.976 240.74 409.403 241.143 409.696 241.67C409.996 242.197 410.146 242.817 410.146 243.53C410.146 244.243 409.996 244.863 409.696 245.39C409.403 245.91 408.976 246.31 408.416 246.59C407.863 246.863 407.206 247 406.446 247H404.276V240.03H406.446ZM406.446 246.25C407.346 246.25 408.033 246.013 408.506 245.54C408.979 245.06 409.216 244.39 409.216 243.53C409.216 242.663 408.976 241.987 408.496 241.5C408.023 241.013 407.339 240.77 406.446 240.77H405.186V246.25H406.446ZM416.346 244.05C416.346 244.223 416.336 244.407 416.316 244.6H411.936C411.97 245.14 412.153 245.563 412.486 245.87C412.826 246.17 413.236 246.32 413.716 246.32C414.11 246.32 414.436 246.23 414.696 246.05C414.963 245.863 415.15 245.617 415.256 245.31H416.236C416.09 245.837 415.796 246.267 415.356 246.6C414.916 246.927 414.37 247.09 413.716 247.09C413.196 247.09 412.73 246.973 412.316 246.74C411.91 246.507 411.59 246.177 411.356 245.75C411.123 245.317 411.006 244.817 411.006 244.25C411.006 243.683 411.12 243.187 411.346 242.76C411.573 242.333 411.89 242.007 412.296 241.78C412.71 241.547 413.183 241.43 413.716 241.43C414.236 241.43 414.696 241.543 415.096 241.77C415.496 241.997 415.803 242.31 416.016 242.71C416.236 243.103 416.346 243.55 416.346 244.05ZM415.406 243.86C415.406 243.513 415.33 243.217 415.176 242.97C415.023 242.717 414.813 242.527 414.546 242.4C414.286 242.267 413.996 242.2 413.676 242.2C413.216 242.2 412.823 242.347 412.496 242.64C412.176 242.933 411.993 243.34 411.946 243.86H415.406ZM417.207 244.25C417.207 243.683 417.321 243.19 417.547 242.77C417.774 242.343 418.087 242.013 418.487 241.78C418.894 241.547 419.357 241.43 419.877 241.43C420.551 241.43 421.104 241.593 421.537 241.92C421.977 242.247 422.267 242.7 422.407 243.28H421.427C421.334 242.947 421.151 242.683 420.877 242.49C420.611 242.297 420.277 242.2 419.877 242.2C419.357 242.2 418.937 242.38 418.617 242.74C418.297 243.093 418.137 243.597 418.137 244.25C418.137 244.91 418.297 245.42 418.617 245.78C418.937 246.14 419.357 246.32 419.877 246.32C420.277 246.32 420.611 246.227 420.877 246.04C421.144 245.853 421.327 245.587 421.427 245.24H422.407C422.261 245.8 421.967 246.25 421.527 246.59C421.087 246.923 420.537 247.09 419.877 247.09C419.357 247.09 418.894 246.973 418.487 246.74C418.087 246.507 417.774 246.177 417.547 245.75C417.321 245.323 417.207 244.823 417.207 244.25ZM425.898 240.6V239.77H427.778V247H426.858V240.6H425.898ZM433.951 240.56H430.441V242.84C430.594 242.627 430.821 242.453 431.121 242.32C431.421 242.18 431.744 242.11 432.091 242.11C432.644 242.11 433.094 242.227 433.441 242.46C433.787 242.687 434.034 242.983 434.181 243.35C434.334 243.71 434.411 244.093 434.411 244.5C434.411 244.98 434.321 245.41 434.141 245.79C433.961 246.17 433.684 246.47 433.311 246.69C432.944 246.91 432.487 247.02 431.941 247.02C431.241 247.02 430.674 246.84 430.241 246.48C429.807 246.12 429.544 245.64 429.451 245.04H430.341C430.427 245.42 430.611 245.717 430.891 245.93C431.171 246.143 431.524 246.25 431.951 246.25C432.477 246.25 432.874 246.093 433.141 245.78C433.407 245.46 433.541 245.04 433.541 244.52C433.541 244 433.407 243.6 433.141 243.32C432.874 243.033 432.481 242.89 431.961 242.89C431.607 242.89 431.297 242.977 431.031 243.15C430.771 243.317 430.581 243.547 430.461 243.84H429.601V239.76H433.951V240.56Z" fill="#8E9093"/>
<path d="M156.159 247H155.249L151.589 241.45V247H150.679V240.02H151.589L155.249 245.56V240.02H156.159V247ZM160.1 247.09C159.587 247.09 159.12 246.973 158.7 246.74C158.287 246.507 157.96 246.177 157.72 245.75C157.487 245.317 157.37 244.817 157.37 244.25C157.37 243.69 157.49 243.197 157.73 242.77C157.977 242.337 158.31 242.007 158.73 241.78C159.15 241.547 159.62 241.43 160.14 241.43C160.66 241.43 161.13 241.547 161.55 241.78C161.97 242.007 162.3 242.333 162.54 242.76C162.787 243.187 162.91 243.683 162.91 244.25C162.91 244.817 162.784 245.317 162.53 245.75C162.284 246.177 161.947 246.507 161.52 246.74C161.094 246.973 160.62 247.09 160.1 247.09ZM160.1 246.29C160.427 246.29 160.734 246.213 161.02 246.06C161.307 245.907 161.537 245.677 161.71 245.37C161.89 245.063 161.98 244.69 161.98 244.25C161.98 243.81 161.894 243.437 161.72 243.13C161.547 242.823 161.32 242.597 161.04 242.45C160.76 242.297 160.457 242.22 160.13 242.22C159.797 242.22 159.49 242.297 159.21 242.45C158.937 242.597 158.717 242.823 158.55 243.13C158.384 243.437 158.3 243.81 158.3 244.25C158.3 244.697 158.38 245.073 158.54 245.38C158.707 245.687 158.927 245.917 159.2 246.07C159.474 246.217 159.774 246.29 160.1 246.29ZM166.147 246.16L167.847 241.52H168.817L166.667 247H165.607L163.457 241.52H164.437L166.147 246.16ZM171.988 240.6V239.77H173.868V247H172.948V240.6H171.988ZM180.042 240.56H176.532V242.84C176.685 242.627 176.912 242.453 177.212 242.32C177.512 242.18 177.835 242.11 178.182 242.11C178.735 242.11 179.185 242.227 179.532 242.46C179.878 242.687 180.125 242.983 180.272 243.35C180.425 243.71 180.502 244.093 180.502 244.5C180.502 244.98 180.412 245.41 180.232 245.79C180.052 246.17 179.775 246.47 179.402 246.69C179.035 246.91 178.578 247.02 178.032 247.02C177.332 247.02 176.765 246.84 176.332 246.48C175.898 246.12 175.635 245.64 175.542 245.04H176.432C176.518 245.42 176.702 245.717 176.982 245.93C177.262 246.143 177.615 246.25 178.042 246.25C178.568 246.25 178.965 246.093 179.232 245.78C179.498 245.46 179.632 245.04 179.632 244.52C179.632 244 179.498 243.6 179.232 243.32C178.965 243.033 178.572 242.89 178.052 242.89C177.698 242.89 177.388 242.977 177.122 243.15C176.862 243.317 176.672 243.547 176.552 243.84H175.692V239.76H180.042V240.56Z" fill="#8E9093"/>
<path d="M22.25 247H21.34L17.68 241.45V247H16.77V240.02H17.68L21.34 245.56V240.02H22.25V247ZM26.1913 247.09C25.6779 247.09 25.2113 246.973 24.7913 246.74C24.3779 246.507 24.0513 246.177 23.8113 245.75C23.5779 245.317 23.4613 244.817 23.4613 244.25C23.4613 243.69 23.5813 243.197 23.8213 242.77C24.0679 242.337 24.4013 242.007 24.8213 241.78C25.2413 241.547 25.7113 241.43 26.2313 241.43C26.7513 241.43 27.2213 241.547 27.6413 241.78C28.0613 242.007 28.3913 242.333 28.6313 242.76C28.8779 243.187 29.0013 243.683 29.0013 244.25C29.0013 244.817 28.8746 245.317 28.6213 245.75C28.3746 246.177 28.0379 246.507 27.6113 246.74C27.1846 246.973 26.7113 247.09 26.1913 247.09ZM26.1913 246.29C26.5179 246.29 26.8246 246.213 27.1113 246.06C27.3979 245.907 27.6279 245.677 27.8013 245.37C27.9813 245.063 28.0713 244.69 28.0713 244.25C28.0713 243.81 27.9846 243.437 27.8113 243.13C27.6379 242.823 27.4113 242.597 27.1313 242.45C26.8513 242.297 26.5479 242.22 26.2213 242.22C25.8879 242.22 25.5813 242.297 25.3013 242.45C25.0279 242.597 24.8079 242.823 24.6413 243.13C24.4746 243.437 24.3913 243.81 24.3913 244.25C24.3913 244.697 24.4713 245.073 24.6313 245.38C24.7979 245.687 25.0179 245.917 25.2913 246.07C25.5646 246.217 25.8646 246.29 26.1913 246.29ZM32.2377 246.16L33.9377 241.52H34.9077L32.7577 247H31.6977L29.5477 241.52H30.5277L32.2377 246.16ZM38.0792 240.6V239.77H39.9592V247H39.0392V240.6H38.0792Z" fill="#8E9093"/>
<g opacity="0.8">
<rect x="20.7217" y="103.608" width="10.3609" height="20.7218" fill="#EA4C1C"/>
<line x1="25.7544" y1="95.8379" x2="25.7544" y2="126.921" stroke="#EA4C1C"/>
<rect x="33.6729" y="95.8384" width="10.3609" height="53.0996" fill="#24FFBD"/>
<line x1="38.7056" y1="91.9531" x2="38.7056" y2="161.889" stroke="#24FFBD"/>
<rect x="46.624" y="117.855" width="10.3609" height="53.0996" fill="#EA4C1C"/>
<line x1="51.6567" y1="106.199" x2="51.6567" y2="176.135" stroke="#EA4C1C"/>
<rect x="59.5752" y="80.2974" width="10.3609" height="44.0338" fill="#24FFBD"/>
<line x1="64.6079" y1="77.707" x2="64.6079" y2="139.872" stroke="#24FFBD"/>
<rect x="72.5264" y="94.5435" width="10.3609" height="37.5583" fill="#EA4C1C"/>
<line x1="77.5591" y1="85.4775" x2="77.5591" y2="155.414" stroke="#EA4C1C"/>
<rect x="85.4775" y="117.855" width="10.3609" height="25.9023" fill="#EA4C1C"/>
<line x1="90.5103" y1="110.084" x2="90.5103" y2="151.528" stroke="#EA4C1C"/>
<rect x="98.4287" y="106.199" width="10.3609" height="25.9023" fill="#24FFBD"/>
<line x1="103.461" y1="93.248" x2="103.461" y2="168.365" stroke="#24FFBD"/>
<rect x="111.379" y="69.9355" width="10.3609" height="106.199" fill="#24FFBD"/>
<line x1="116.412" y1="38.853" x2="116.412" y2="176.135" stroke="#24FFBD"/>
<rect x="124.331" y="27.1973" width="10.3609" height="76.4117" fill="#24FFBD"/>
<line x1="129.363" y1="18.1313" x2="129.363" y2="155.413" stroke="#24FFBD"/>
<rect x="137.282" y="38.8535" width="10.3609" height="18.1316" fill="#EA4C1C"/>
<line x1="142.314" y1="31.083" x2="142.314" y2="62.1657" stroke="#EA4C1C"/>
<rect x="150.233" y="36.2632" width="10.3609" height="33.6729" fill="#24FFBD"/>
<line x1="155.266" y1="33.6729" x2="155.266" y2="93.248" stroke="#24FFBD"/>
<rect x="163.184" y="64.7554" width="10.3609" height="41.4436" fill="#EA4C1C"/>
<line x1="168.217" y1="51.8042" x2="168.217" y2="121.74" stroke="#EA4C1C"/>
<rect x="176.135" y="80.2969" width="10.3609" height="85.4774" fill="#EA4C1C"/>
<line x1="181.168" y1="62.1655" x2="181.168" y2="165.775" stroke="#EA4C1C"/>
<rect x="189.086" y="64.7559" width="10.3609" height="49.2143" fill="#24FFBD"/>
<line x1="194.119" y1="50.5093" x2="194.119" y2="123.036" stroke="#24FFBD"/>
<rect x="202.038" y="54.3945" width="10.3609" height="40.1485" fill="#24FFBD"/>
<line x1="207.07" y1="47.9189" x2="207.07" y2="99.7234" stroke="#24FFBD"/>
<rect x="214.989" y="42.7388" width="10.3609" height="22.0169" fill="#24FFBD"/>
<line x1="220.021" y1="38.853" x2="220.021" y2="69.9357" stroke="#24FFBD"/>
<rect x="227.94" y="23.312" width="10.3609" height="37.5583" fill="#24FFBD"/>
<line x1="232.973" y1="23.312" x2="232.973" y2="82.8872" stroke="#24FFBD"/>
<rect x="240.891" y="47.9189" width="10.3609" height="46.6241" fill="#EA4C1C"/>
<line x1="245.924" y1="33.6729" x2="245.924" y2="98.4285" stroke="#EA4C1C"/>
<rect x="253.842" y="38.8535" width="10.3609" height="15.5414" fill="#24FFBD"/>
<line x1="258.875" y1="29.7876" x2="258.875" y2="66.0508" stroke="#24FFBD"/>
<rect x="266.793" y="29.7876" width="10.3609" height="50.5094" fill="#24FFBD"/>
<line x1="271.826" y1="25.9023" x2="271.826" y2="85.4775" stroke="#24FFBD"/>
<rect x="279.744" y="56.9849" width="10.3609" height="94.5432" fill="#EA4C1C"/>
<line x1="284.777" y1="40.1484" x2="284.777" y2="156.709" stroke="#EA4C1C"/>
<rect x="292.695" y="80.2974" width="10.3609" height="41.4436" fill="#24FFBD"/>
<line x1="297.729" y1="77.707" x2="297.729" y2="137.282" stroke="#24FFBD"/>
<rect x="305.646" y="68.6406" width="10.3609" height="20.7218" fill="#24FFBD"/>
<line x1="310.679" y1="54.3945" x2="310.679" y2="101.019" stroke="#24FFBD"/>
<rect x="318.598" y="42.7388" width="10.3609" height="45.3289" fill="#24FFBD"/>
<line x1="323.631" y1="38.853" x2="323.631" y2="111.379" stroke="#24FFBD"/>
<path d="M331.549 71.231H341.91V142.462H331.549V71.231Z" fill="#EA4C1C"/>
<line x1="336.582" y1="51.8042" x2="336.582" y2="145.052" stroke="#EA4C1C"/>
<rect x="344.5" y="64.7554" width="10.3609" height="49.2143" fill="#24FFBD"/>
<line x1="349.533" y1="47.9189" x2="349.533" y2="120.445" stroke="#24FFBD"/>
<rect x="357.451" y="38.8535" width="10.3609" height="31.0827" fill="#24FFBD"/>
<line x1="362.484" y1="31.083" x2="362.484" y2="90.6582" stroke="#24FFBD"/>
<rect x="370.402" y="51.8042" width="10.3609" height="31.0827" fill="#EA4C1C"/>
<line x1="375.435" y1="38.853" x2="375.435" y2="85.4771" stroke="#EA4C1C"/>
<rect x="383.354" y="27.1973" width="10.3609" height="42.7387" fill="#24FFBD"/>
<line x1="388.387" y1="24.6069" x2="388.387" y2="76.4114" stroke="#24FFBD"/>
<rect x="396.304" y="47.9189" width="10.3609" height="73.8214" fill="#EA4C1C"/>
<line x1="401.337" y1="40.1484" x2="401.337" y2="133.397" stroke="#EA4C1C"/>
<rect x="409.256" y="33.6729" width="10.3609" height="46.6241" fill="#24FFBD"/>
<line x1="414.289" y1="16.8364" x2="414.289" y2="89.3627" stroke="#24FFBD"/>
</g>
</svg>
