<svg xmlns="http://www.w3.org/2000/svg" width="223" height="124" viewBox="0 0 223 124" fill="none" >
<path d="M1.56006 75.1643L2.88464 73.0325" stroke="#3E9E64" stroke-width="2" stroke-miterlimit="10" stroke-linecap="round"/>
<path d="M2.88464 73.0325L4.20922 71.3181" stroke="#3E9E64" stroke-width="2" stroke-miterlimit="10" stroke-linecap="round"/>
<path d="M4.20923 71.3181L5.53381 76.8886" stroke="#3E9E64" stroke-width="2" stroke-miterlimit="10" stroke-linecap="round"/>
<path d="M5.53381 76.8887L6.85839 80.9452" stroke="#3E9E64" stroke-width="2" stroke-miterlimit="10" stroke-linecap="round"/>
<path d="M6.8584 80.9451L8.18298 75.0171" stroke="#3E9E64" stroke-width="2" stroke-miterlimit="10" stroke-linecap="round"/>
<path d="M8.18298 75.017L9.50756 72.677" stroke="#3E9E64" stroke-width="2" stroke-miterlimit="10" stroke-linecap="round"/>
<path d="M9.50757 72.6772L10.8321 69.1333" stroke="#3E9E64" stroke-width="2" stroke-miterlimit="10" stroke-linecap="round"/>
<path d="M10.8322 69.1333L12.1567 70.9421" stroke="#3E9E64" stroke-width="2" stroke-miterlimit="10" stroke-linecap="round"/>
<path d="M12.1567 70.9419L13.4813 80.2548" stroke="#3E9E64" stroke-width="2" stroke-miterlimit="10" stroke-linecap="round"/>
<path d="M13.4813 80.2549L14.8059 89.2901" stroke="#3E9E64" stroke-width="2" stroke-miterlimit="10" stroke-linecap="round"/>
<path d="M14.8058 89.2902L16.1304 83.3567" stroke="#3E9E64" stroke-width="2" stroke-miterlimit="10" stroke-linecap="round"/>
<path d="M16.1304 83.3567L17.455 85.4295" stroke="#3E9E64" stroke-width="2" stroke-miterlimit="10" stroke-linecap="round"/>
<path d="M17.455 85.4295L18.7795 81.6099" stroke="#3E9E64" stroke-width="2" stroke-miterlimit="10" stroke-linecap="round"/>
<path d="M18.7795 81.6099L20.1041 85.9062" stroke="#3E9E64" stroke-width="2" stroke-miterlimit="10" stroke-linecap="round"/>
<path d="M20.1041 85.9062L21.4287 86.0143" stroke="#3E9E64" stroke-width="2" stroke-miterlimit="10" stroke-linecap="round"/>
<path d="M21.4287 86.0142L22.7533 86.2901" stroke="#3E9E64" stroke-width="2" stroke-miterlimit="10" stroke-linecap="round"/>
<path d="M22.7533 86.29L24.0779 92.3959" stroke="#3E9E64" stroke-width="2" stroke-miterlimit="10" stroke-linecap="round"/>
<path d="M24.0779 92.396L25.4025 87.5337" stroke="#3E9E64" stroke-width="2" stroke-miterlimit="10" stroke-linecap="round"/>
<path d="M25.4025 87.5336L26.727 84.8882" stroke="#3E9E64" stroke-width="2" stroke-miterlimit="10" stroke-linecap="round"/>
<path d="M26.7271 84.8881L28.0516 84.3821" stroke="#3E9E64" stroke-width="2" stroke-miterlimit="10" stroke-linecap="round"/>
<path d="M28.0516 84.3821L29.3762 86.1381" stroke="#3E9E64" stroke-width="2" stroke-miterlimit="10" stroke-linecap="round"/>
<path d="M29.3762 86.1384L30.7008 79.5178" stroke="#3E9E64" stroke-width="2" stroke-miterlimit="10" stroke-linecap="round"/>
<path d="M30.7008 79.5177L32.0254 79.3508" stroke="#3E9E64" stroke-width="2" stroke-miterlimit="10" stroke-linecap="round"/>
<path d="M32.0254 79.3508L33.35 81.3399" stroke="#3E9E64" stroke-width="2" stroke-miterlimit="10" stroke-linecap="round"/>
<path d="M33.35 81.3398L34.6746 74.8772" stroke="#3E9E64" stroke-width="2" stroke-miterlimit="10" stroke-linecap="round"/>
<path d="M34.6746 74.8773L35.9991 69.1328" stroke="#3E9E64" stroke-width="2" stroke-miterlimit="10" stroke-linecap="round"/>
<path d="M35.9991 69.1328L37.3237 44.5137" stroke="#3E9E64" stroke-width="2" stroke-miterlimit="10" stroke-linecap="round"/>
<path d="M37.3237 44.5137L38.6483 33.26" stroke="#3E9E64" stroke-width="2" stroke-miterlimit="10" stroke-linecap="round"/>
<path d="M38.6482 33.2601L39.9728 17.7871" stroke="#3E9E64" stroke-width="2" stroke-miterlimit="10" stroke-linecap="round"/>
<path d="M39.9728 17.7871L41.2974 21.8701" stroke="#3E9E64" stroke-width="2" stroke-miterlimit="10" stroke-linecap="round"/>
<path d="M41.2974 21.8701L42.6219 25.5667" stroke="#3E9E64" stroke-width="2" stroke-miterlimit="10" stroke-linecap="round"/>
<path d="M42.6219 25.5667L43.9465 26.4821" stroke="#3E9E64" stroke-width="2" stroke-miterlimit="10" stroke-linecap="round"/>
<path d="M43.9465 26.4819L45.2711 26.8723" stroke="#3E9E64" stroke-width="2" stroke-miterlimit="10" stroke-linecap="round"/>
<path d="M45.2711 26.8723L46.5957 22.4221" stroke="#3E9E64" stroke-width="2" stroke-miterlimit="10" stroke-linecap="round"/>
<path d="M46.5957 22.4222L47.9203 12.5239" stroke="#3E9E64" stroke-width="2" stroke-miterlimit="10" stroke-linecap="round"/>
<path d="M47.9203 12.5239L49.2449 19.9618" stroke="#3E9E64" stroke-width="2" stroke-miterlimit="10" stroke-linecap="round"/>
<path d="M49.2449 19.9618L50.5695 19.8071" stroke="#3E9E64" stroke-width="2" stroke-miterlimit="10" stroke-linecap="round"/>
<path d="M50.5695 19.8071L51.894 21.192" stroke="#3E9E64" stroke-width="2" stroke-miterlimit="10" stroke-linecap="round"/>
<path d="M51.894 21.192L53.2186 20.5178" stroke="#3E9E64" stroke-width="2" stroke-miterlimit="10" stroke-linecap="round"/>
<path d="M53.2186 20.5178L54.5432 25.0576" stroke="#3E9E64" stroke-width="2" stroke-miterlimit="10" stroke-linecap="round"/>
<path d="M54.5432 25.0576L55.8678 19.5854" stroke="#3E9E64" stroke-width="2" stroke-miterlimit="10" stroke-linecap="round"/>
<path d="M55.8678 19.5855L57.1924 17.5359" stroke="#3E9E64" stroke-width="2" stroke-miterlimit="10" stroke-linecap="round"/>
<path d="M57.1924 17.5358L58.517 15.116" stroke="#3E9E64" stroke-width="2" stroke-miterlimit="10" stroke-linecap="round"/>
<path d="M58.517 15.116L59.8415 16.5936" stroke="#3E9E64" stroke-width="2" stroke-miterlimit="10" stroke-linecap="round"/>
<path d="M59.8416 16.5938L61.1661 19.6832" stroke="#3E9E64" stroke-width="2" stroke-miterlimit="10" stroke-linecap="round"/>
<path d="M61.1661 19.6831L62.4907 20.447" stroke="#3E9E64" stroke-width="2" stroke-miterlimit="10" stroke-linecap="round"/>
<path d="M62.4907 20.4471L63.8153 20.3264" stroke="#3E9E64" stroke-width="2" stroke-miterlimit="10" stroke-linecap="round"/>
<path d="M63.8152 20.3264L65.1397 26.7052" stroke="#3E9E64" stroke-width="2" stroke-miterlimit="10" stroke-linecap="round"/>
<path d="M65.1398 26.7051L66.4644 21.9324" stroke="#3E9E64" stroke-width="2" stroke-miterlimit="10" stroke-linecap="round"/>
<path d="M66.4644 21.9325L67.7889 21.6826" stroke="#3E9E64" stroke-width="2" stroke-miterlimit="10" stroke-linecap="round"/>
<path d="M67.7889 21.6824L69.1135 18.1802" stroke="#3E9E64" stroke-width="2" stroke-miterlimit="10" stroke-linecap="round"/>
<path d="M69.1135 18.1804L70.4381 6.57617" stroke="#3E9E64" stroke-width="2" stroke-miterlimit="10" stroke-linecap="round"/>
<path d="M70.4381 6.57617L71.7627 18.0626" stroke="#3E9E64" stroke-width="2" stroke-miterlimit="10" stroke-linecap="round"/>
<path d="M71.7627 18.0626L73.0873 17.8994" stroke="#3E9E64" stroke-width="2" stroke-miterlimit="10" stroke-linecap="round"/>
<path d="M73.0873 17.8994L74.4118 23.39" stroke="#3E9E64" stroke-width="2" stroke-miterlimit="10" stroke-linecap="round"/>
<path d="M74.4119 23.3899L75.7365 27.2467" stroke="#3E9E64" stroke-width="2" stroke-miterlimit="10" stroke-linecap="round"/>
<path d="M75.7365 27.2468L77.061 25.9399" stroke="#3E9E64" stroke-width="2" stroke-miterlimit="10" stroke-linecap="round"/>
<path d="M77.061 25.9401L78.3856 19.0681" stroke="#3E9E64" stroke-width="2" stroke-miterlimit="10" stroke-linecap="round"/>
<path d="M78.3856 19.0681L79.7102 21.5491" stroke="#3E9E64" stroke-width="2" stroke-miterlimit="10" stroke-linecap="round"/>
<path d="M79.7102 21.5488L81.0348 24.5808" stroke="#3E9E64" stroke-width="2" stroke-miterlimit="10" stroke-linecap="round"/>
<path d="M81.0348 24.5811L82.3594 23.1526" stroke="#3E9E64" stroke-width="2" stroke-miterlimit="10" stroke-linecap="round"/>
<path d="M82.3594 23.1526L83.684 23.8331" stroke="#3E9E64" stroke-width="2" stroke-miterlimit="10" stroke-linecap="round"/>
<path d="M83.684 23.8329L85.0085 23.0354" stroke="#3E9E64" stroke-width="2" stroke-miterlimit="10" stroke-linecap="round"/>
<path d="M85.0085 23.0355L86.3331 21.8716" stroke="#3E9E64" stroke-width="2" stroke-miterlimit="10" stroke-linecap="round"/>
<path d="M86.3331 21.8716L87.6577 22.165" stroke="#3E9E64" stroke-width="2" stroke-miterlimit="10" stroke-linecap="round"/>
<path d="M87.6577 22.165L88.9823 22.8822" stroke="#3E9E64" stroke-width="2" stroke-miterlimit="10" stroke-linecap="round"/>
<path d="M88.9822 22.8821L90.3068 23.7755" stroke="#3E9E64" stroke-width="2" stroke-miterlimit="10" stroke-linecap="round"/>
<path d="M90.3068 23.7756L91.6313 32.2676" stroke="#3E9E64" stroke-width="2" stroke-miterlimit="10" stroke-linecap="round"/>
<path d="M91.6313 32.2675L92.9559 29.9031" stroke="#3E9E64" stroke-width="2" stroke-miterlimit="10" stroke-linecap="round"/>
<path d="M92.9559 29.903L94.2805 25.145" stroke="#3E9E64" stroke-width="2" stroke-miterlimit="10" stroke-linecap="round"/>
<path d="M94.2805 25.1449L95.6051 22.4084" stroke="#3E9E64" stroke-width="2" stroke-miterlimit="10" stroke-linecap="round"/>
<path d="M95.6051 22.4084L96.9297 27.9312" stroke="#3E9E64" stroke-width="2" stroke-miterlimit="10" stroke-linecap="round"/>
<path d="M96.9297 27.9314L98.2543 28.2981" stroke="#3E9E64" stroke-width="2" stroke-miterlimit="10" stroke-linecap="round"/>
<path d="M98.2543 28.2981L99.5789 31.3149" stroke="#3E9E64" stroke-width="2" stroke-miterlimit="10" stroke-linecap="round"/>
<path d="M99.5789 31.3148L100.903 27.3628" stroke="#3E9E64" stroke-width="2" stroke-miterlimit="10" stroke-linecap="round"/>
<path d="M100.903 27.3629L102.228 20.7156" stroke="#3E9E64" stroke-width="2" stroke-miterlimit="10" stroke-linecap="round"/>
<path d="M102.228 20.7156L103.553 23.4218" stroke="#3E9E64" stroke-width="2" stroke-miterlimit="10" stroke-linecap="round"/>
<path d="M103.553 23.4216L104.877 23.4686" stroke="#3E9E64" stroke-width="2" stroke-miterlimit="10" stroke-linecap="round"/>
<path d="M104.877 23.4687L106.202 20.8608" stroke="#3E9E64" stroke-width="2" stroke-miterlimit="10" stroke-linecap="round"/>
<path d="M106.202 20.8608L107.526 29.9371" stroke="#3E9E64" stroke-width="2" stroke-miterlimit="10" stroke-linecap="round"/>
<path d="M107.526 29.937L108.851 35.654" stroke="#3E9E64" stroke-width="2" stroke-miterlimit="10" stroke-linecap="round"/>
<path d="M108.851 35.6541L110.175 36.9656" stroke="#3E9E64" stroke-width="2" stroke-miterlimit="10" stroke-linecap="round"/>
<path d="M110.176 36.9657L111.5 32.2952" stroke="#3E9E64" stroke-width="2" stroke-miterlimit="10" stroke-linecap="round"/>
<path d="M111.5 32.2952L112.825 43.7585" stroke="#3E9E64" stroke-width="2" stroke-miterlimit="10" stroke-linecap="round"/>
<path d="M112.825 43.7585L114.149 51.1839" stroke="#3E9E64" stroke-width="2" stroke-miterlimit="10" stroke-linecap="round"/>
<path d="M114.149 51.1838L115.474 48.7214" stroke="#3E9E64" stroke-width="2" stroke-miterlimit="10" stroke-linecap="round"/>
<path d="M115.474 48.7214L116.798 49.284" stroke="#3E9E64" stroke-width="2" stroke-miterlimit="10" stroke-linecap="round"/>
<path d="M116.798 49.2841L118.123 47.1638" stroke="#3E9E64" stroke-width="2" stroke-miterlimit="10" stroke-linecap="round"/>
<path d="M118.123 47.1638L119.448 47.7794" stroke="#3E9E64" stroke-width="2" stroke-miterlimit="10" stroke-linecap="round"/>
<path d="M119.448 47.7793L120.772 50.3439" stroke="#3E9E64" stroke-width="2" stroke-miterlimit="10" stroke-linecap="round"/>
<path d="M120.772 50.3439L122.097 45.406" stroke="#3E9E64" stroke-width="2" stroke-miterlimit="10" stroke-linecap="round"/>
<path d="M122.097 45.4058L123.421 42.9412" stroke="#3E9E64" stroke-width="2" stroke-miterlimit="10" stroke-linecap="round"/>
<path d="M123.421 42.9412L124.746 50.7529" stroke="#3E9E64" stroke-width="2" stroke-miterlimit="10" stroke-linecap="round"/>
<path d="M124.746 50.7529L126.07 47.0764" stroke="#3E9E64" stroke-width="2" stroke-miterlimit="10" stroke-linecap="round"/>
<path d="M126.07 47.0764L127.395 50.8197" stroke="#3E9E64" stroke-width="2" stroke-miterlimit="10" stroke-linecap="round"/>
<path d="M127.395 50.8197L128.72 48.0112" stroke="#3E9E64" stroke-width="2" stroke-miterlimit="10" stroke-linecap="round"/>
<path d="M128.72 48.0112L130.044 43.6843" stroke="#3E9E64" stroke-width="2" stroke-miterlimit="10" stroke-linecap="round"/>
<path d="M130.044 43.6844L131.369 38.7476" stroke="#3E9E64" stroke-width="2" stroke-miterlimit="10" stroke-linecap="round"/>
<path d="M131.369 38.7476L132.693 39.8881" stroke="#3E9E64" stroke-width="2" stroke-miterlimit="10" stroke-linecap="round"/>
<path d="M132.693 39.8881L134.018 38.1326" stroke="#3E9E64" stroke-width="2" stroke-miterlimit="10" stroke-linecap="round"/>
<path d="M134.018 38.1326L135.343 37.2119" stroke="#3E9E64" stroke-width="2" stroke-miterlimit="10" stroke-linecap="round"/>
<path d="M135.343 37.2119L136.667 38.2767" stroke="#3E9E64" stroke-width="2" stroke-miterlimit="10" stroke-linecap="round"/>
<path d="M136.667 38.2766L137.992 26.9919" stroke="#3E9E64" stroke-width="2" stroke-miterlimit="10" stroke-linecap="round"/>
<path d="M137.992 26.9919L139.316 21.3354" stroke="#3E9E64" stroke-width="2" stroke-miterlimit="10" stroke-linecap="round"/>
<path d="M139.316 21.3354L140.641 26.2539" stroke="#3E9E64" stroke-width="2" stroke-miterlimit="10" stroke-linecap="round"/>
<path d="M140.641 26.2539L141.965 30.6761" stroke="#3E9E64" stroke-width="2" stroke-miterlimit="10" stroke-linecap="round"/>
<path d="M141.965 30.6762L143.29 24.6519" stroke="#3E9E64" stroke-width="2" stroke-miterlimit="10" stroke-linecap="round"/>
<path d="M143.29 24.6519L144.615 24.9655" stroke="#3E9E64" stroke-width="2" stroke-miterlimit="10" stroke-linecap="round"/>
<path d="M144.615 24.9654L145.939 22.1326" stroke="#3E9E64" stroke-width="2" stroke-miterlimit="10" stroke-linecap="round"/>
<path d="M145.939 22.1326L147.264 21.0205" stroke="#3E9E64" stroke-width="2" stroke-miterlimit="10" stroke-linecap="round"/>
<path d="M147.264 21.0205L148.588 23.5883" stroke="#3E9E64" stroke-width="2" stroke-miterlimit="10" stroke-linecap="round"/>
<path d="M148.588 23.5883L149.913 22.4956" stroke="#3E9E64" stroke-width="2" stroke-miterlimit="10" stroke-linecap="round"/>
<path d="M149.913 22.4956L151.237 26.5191" stroke="#3E9E64" stroke-width="2" stroke-miterlimit="10" stroke-linecap="round"/>
<path d="M151.237 26.519L152.562 30.0004" stroke="#3E9E64" stroke-width="2" stroke-miterlimit="10" stroke-linecap="round"/>
<path d="M152.562 30.0004L153.887 27.626" stroke="#3E9E64" stroke-width="2" stroke-miterlimit="10" stroke-linecap="round"/>
<path d="M153.887 27.626L155.211 24.1475" stroke="#3E9E64" stroke-width="2" stroke-miterlimit="10" stroke-linecap="round"/>
<path d="M155.211 24.1475L156.536 29.2546" stroke="#3E9E64" stroke-width="2" stroke-miterlimit="10" stroke-linecap="round"/>
<path d="M156.536 29.2546L157.86 20.1375" stroke="#3E9E64" stroke-width="2" stroke-miterlimit="10" stroke-linecap="round"/>
<path d="M157.86 20.1376L159.185 14.1399" stroke="#3E9E64" stroke-width="2" stroke-miterlimit="10" stroke-linecap="round"/>
<path d="M159.185 14.1397L160.51 6.66333" stroke="#3E9E64" stroke-width="2" stroke-miterlimit="10" stroke-linecap="round"/>
<path d="M160.51 6.66333L161.834 10.0972" stroke="#3E9E64" stroke-width="2" stroke-miterlimit="10" stroke-linecap="round"/>
<path d="M161.834 10.0973L163.159 9.02856" stroke="#3E9E64" stroke-width="2" stroke-miterlimit="10" stroke-linecap="round"/>
<path d="M163.159 9.02854L164.483 1.28003" stroke="#3E9E64" stroke-width="2" stroke-miterlimit="10" stroke-linecap="round"/>
<path d="M164.483 1.28003L165.808 4.48936" stroke="#3E9E64" stroke-width="2" stroke-miterlimit="10" stroke-linecap="round"/>
<path d="M165.808 4.48926L167.132 14.4429" stroke="#3E9E64" stroke-width="2" stroke-miterlimit="10" stroke-linecap="round"/>
<path d="M167.132 14.4429L168.457 15.1346" stroke="#3E9E64" stroke-width="2" stroke-miterlimit="10" stroke-linecap="round"/>
<path d="M168.457 15.1348L169.782 21.7152" stroke="#3E9E64" stroke-width="2" stroke-miterlimit="10" stroke-linecap="round"/>
<path d="M169.781 21.7151L171.106 22.0722" stroke="#3E9E64" stroke-width="2" stroke-miterlimit="10" stroke-linecap="round"/>
<path d="M171.106 22.0723L172.431 30.4408" stroke="#3E9E64" stroke-width="2" stroke-miterlimit="10" stroke-linecap="round"/>
<path d="M172.431 30.4407L173.755 36.6787" stroke="#3E9E64" stroke-width="2" stroke-miterlimit="10" stroke-linecap="round"/>
<path d="M173.755 36.6787L175.08 49.238" stroke="#3E9E64" stroke-width="2" stroke-miterlimit="10" stroke-linecap="round"/>
<path d="M175.08 49.238L176.404 50.6734" stroke="#3E9E64" stroke-width="2" stroke-miterlimit="10" stroke-linecap="round"/>
<path d="M176.404 50.6733L177.729 50.2886" stroke="#3E9E64" stroke-width="2" stroke-miterlimit="10" stroke-linecap="round"/>
<path d="M177.729 50.2886L179.054 67.0507" stroke="#3E9E64" stroke-width="2" stroke-miterlimit="10" stroke-linecap="round"/>
<path d="M179.054 67.0508L180.378 63.6685" stroke="#3E9E64" stroke-width="2" stroke-miterlimit="10" stroke-linecap="round"/>
<path d="M180.378 63.6685L181.703 65.8788" stroke="#3E9E64" stroke-width="2" stroke-miterlimit="10" stroke-linecap="round"/>
<path d="M181.703 65.8789L183.027 64.6829" stroke="#3E9E64" stroke-width="2" stroke-miterlimit="10" stroke-linecap="round"/>
<path d="M183.027 64.6828L184.352 59.699" stroke="#3E9E64" stroke-width="2" stroke-miterlimit="10" stroke-linecap="round"/>
<path d="M184.352 59.699L185.676 67.9393" stroke="#3E9E64" stroke-width="2" stroke-miterlimit="10" stroke-linecap="round"/>
<path d="M185.676 67.9395L187.001 69.773" stroke="#3E9E64" stroke-width="2" stroke-miterlimit="10" stroke-linecap="round"/>
<path d="M187.001 69.773L188.326 65.1826" stroke="#3E9E64" stroke-width="2" stroke-miterlimit="10" stroke-linecap="round"/>
<path d="M188.326 65.1826L189.65 67.1344" stroke="#3E9E64" stroke-width="2" stroke-miterlimit="10" stroke-linecap="round"/>
<path d="M189.65 67.1343L190.975 70.2807" stroke="#3E9E64" stroke-width="2" stroke-miterlimit="10" stroke-linecap="round"/>
<path d="M190.975 70.2808L192.299 67.9771" stroke="#3E9E64" stroke-width="2" stroke-miterlimit="10" stroke-linecap="round"/>
<path d="M192.299 67.9771L193.624 71.7821" stroke="#3E9E64" stroke-width="2" stroke-miterlimit="10" stroke-linecap="round"/>
<path d="M193.624 71.7822L194.949 79.7231" stroke="#3E9E64" stroke-width="2" stroke-miterlimit="10" stroke-linecap="round"/>
<path d="M194.948 79.7231L196.273 96.3448" stroke="#3E9E64" stroke-width="2" stroke-miterlimit="10" stroke-linecap="round"/>
<path d="M196.273 96.3447L197.598 99.8568" stroke="#3E9E64" stroke-width="2" stroke-miterlimit="10" stroke-linecap="round"/>
<path d="M197.598 99.8567L198.922 102.436" stroke="#3E9E64" stroke-width="2" stroke-miterlimit="10" stroke-linecap="round"/>
<path d="M198.922 102.436L200.247 101.758" stroke="#3E9E64" stroke-width="2" stroke-miterlimit="10" stroke-linecap="round"/>
<path d="M200.247 101.758L201.571 103.998" stroke="#3E9E64" stroke-width="2" stroke-miterlimit="10" stroke-linecap="round"/>
<path d="M201.571 103.998L202.896 102.663" stroke="#3E9E64" stroke-width="2" stroke-miterlimit="10" stroke-linecap="round"/>
<path d="M202.896 102.663L204.221 105.997" stroke="#3E9E64" stroke-width="2" stroke-miterlimit="10" stroke-linecap="round"/>
<path d="M204.221 105.996L205.545 101.332" stroke="#3E9E64" stroke-width="2" stroke-miterlimit="10" stroke-linecap="round"/>
<path d="M205.545 101.332L206.87 102.094" stroke="#3E9E64" stroke-width="2" stroke-miterlimit="10" stroke-linecap="round"/>
<path d="M206.87 102.094L208.194 95.0803" stroke="#3E9E64" stroke-width="2" stroke-miterlimit="10" stroke-linecap="round"/>
<path d="M208.194 95.0803L209.519 95.2387" stroke="#3E9E64" stroke-width="2" stroke-miterlimit="10" stroke-linecap="round"/>
<path d="M209.519 95.2388L210.843 99.5463" stroke="#3E9E64" stroke-width="2" stroke-miterlimit="10" stroke-linecap="round"/>
<path d="M210.844 99.5462L212.168 97.4775" stroke="#3E9E64" stroke-width="2" stroke-miterlimit="10" stroke-linecap="round"/>
<path d="M212.168 97.4775L213.493 99.9431" stroke="#3E9E64" stroke-width="2" stroke-miterlimit="10" stroke-linecap="round"/>
<path d="M213.493 99.9431L214.817 105.646" stroke="#3E9E64" stroke-width="2" stroke-miterlimit="10" stroke-linecap="round"/>
<path d="M214.817 105.646L216.142 102.534" stroke="#3E9E64" stroke-width="2" stroke-miterlimit="10" stroke-linecap="round"/>
<path d="M216.142 102.534L217.466 95.7996" stroke="#3E9E64" stroke-width="2" stroke-miterlimit="10" stroke-linecap="round"/>
<path d="M217.466 95.7996L218.791 102.895" stroke="#3E9E64" stroke-width="2" stroke-miterlimit="10" stroke-linecap="round"/>
<path d="M218.791 102.895L220.115 102.141" stroke="#3E9E64" stroke-width="2" stroke-miterlimit="10" stroke-linecap="round"/>
<path d="M220.115 102.141L221.44 122.72" stroke="#3E9E64" stroke-width="2" stroke-miterlimit="10" stroke-linecap="round"/>
</svg>
