<svg xmlns="http://www.w3.org/2000/svg" width="30" height="30" viewBox="0 0 30 30" fill="none" >
<path d="M16.5539 1.75644L28.2436 13.4462C29.1012 14.3038 29.1012 15.6962 28.2436 16.5538L16.5539 28.2435C15.6963 29.1011 14.3039 29.1011 13.4463 28.2435L1.75656 16.5538C0.899017 15.6962 0.899017 14.3038 1.75656 13.4462L13.4463 1.75644C14.3039 0.898895 15.6963 0.898895 16.5539 1.75644Z" fill="url(#paint0_linear_5174_20437)"/>
<path d="M16.5539 1.75644L28.2436 13.4462C29.1012 14.3038 29.1012 15.6962 28.2436 16.5538L16.5539 28.2435C15.6963 29.1011 14.3039 29.1011 13.4463 28.2435L1.75656 16.5538C0.899017 15.6962 0.899017 14.3038 1.75656 13.4462L13.4463 1.75644C14.3039 0.898895 15.6963 0.898895 16.5539 1.75644Z" stroke="#EAEAEA" stroke-miterlimit="2" stroke-linecap="square"/>
<path d="M17.3008 20.7228C16.806 20.7228 16.0845 20.4637 15.1362 19.9454C14.1879 19.427 13.6371 19.1502 13.484 19.1148C12.7772 20.0454 12.1175 20.5108 11.505 20.5108C11.34 20.5108 11.0927 20.2811 10.7629 19.8217C10.433 19.3623 10.2681 18.9323 10.2681 18.5318C10.2681 18.3551 10.4506 18.1342 10.8158 17.8691C11.181 17.604 11.5992 17.4185 12.0704 17.3125C12.3885 16.5703 12.7036 15.4454 13.0157 13.9375C13.3279 12.4297 13.484 11.1044 13.484 9.96172C13.484 9.77323 13.4221 9.5612 13.2985 9.32566C13.1748 9.09004 13.054 8.90154 12.9363 8.76017L12.7418 8.54812L12.7949 8.19469C13.4428 7.90018 14.7857 7.75293 16.8236 7.75293C17.0121 8.04744 17.1064 8.54812 17.1064 9.25497C17.1064 9.96176 16.7942 11.1869 16.1698 12.9303C15.5455 14.6737 14.9212 16.1875 14.2968 17.4715C15.4748 17.7778 16.5999 17.9309 17.6719 17.9309C17.9192 17.9309 18.1224 17.872 18.2814 17.7542C18.4405 17.6365 18.6142 17.3891 18.8027 17.0121L19.7746 17.3479C19.5861 18.4669 19.3004 19.3092 18.9176 19.8747C18.5347 20.4401 17.9958 20.7228 17.3008 20.7228Z" fill="#EAEAEA"/>
<defs>
<linearGradient id="paint0_linear_5174_20437" x1="2.38593" y1="2.35696" x2="27.6174" y2="27.5884" gradientUnits="userSpaceOnUse">
<stop offset="0.00833333" stop-color="#642EFF"/>
<stop offset="0.491667" stop-color="#632EFD"/>
<stop offset="0.979167" stop-color="#351886"/>
</linearGradient>
</defs>
</svg>
