<svg xmlns="http://www.w3.org/2000/svg" width="84" height="84" viewBox="0 0 84 84" fill="none">
<path d="M49 10.5V24.5C49 25.4283 49.3687 26.3185 50.0251 26.9749C50.6815 27.6313 51.5717 28 52.5 28H66.5" stroke="url(#paint0_linear_8075_30322)" stroke-width="2.75" stroke-linecap="round" stroke-linejoin="round"/>
<path d="M59.5 73.5H24.5C22.6435 73.5 20.863 72.7625 19.5503 71.4497C18.2375 70.137 17.5 68.3565 17.5 66.5V17.5C17.5 15.6435 18.2375 13.863 19.5503 12.5503C20.863 11.2375 22.6435 10.5 24.5 10.5H49L66.5 28V66.5C66.5 68.3565 65.7625 70.137 64.4497 71.4497C63.137 72.7625 61.3565 73.5 59.5 73.5Z" stroke="url(#paint1_linear_8075_30322)" stroke-width="2.75" stroke-linecap="round" stroke-linejoin="round"/>
<path d="M42 38.5V59.5" stroke="url(#paint2_linear_8075_30322)" stroke-width="2.75" stroke-linecap="round" stroke-linejoin="round"/>
<path d="M31.5 49H52.5" stroke="url(#paint3_linear_8075_30322)" stroke-width="2.75" stroke-linecap="round" stroke-linejoin="round"/>
<defs>
<linearGradient id="paint0_linear_8075_30322" x1="49" y1="15.8375" x2="66.9028" y2="17.4278" gradientUnits="userSpaceOnUse">
<stop stop-color="#C5FFAA"/>
<stop offset="1" stop-color="#00BAC6"/>
</linearGradient>
<linearGradient id="paint1_linear_8075_30322" x1="17.5" y1="29.715" x2="67.7834" y2="33.189" gradientUnits="userSpaceOnUse">
<stop stop-color="#C5FFAA"/>
<stop offset="1" stop-color="#00BAC6"/>
</linearGradient>
<linearGradient id="paint2_linear_8075_30322" x1="42" y1="44.905" x2="43.0311" y2="44.9094" gradientUnits="userSpaceOnUse">
<stop stop-color="#C5FFAA"/>
<stop offset="1" stop-color="#00BAC6"/>
</linearGradient>
<linearGradient id="paint3_linear_8075_30322" x1="31.5" y1="49.305" x2="36.3336" y2="58.3215" gradientUnits="userSpaceOnUse">
<stop stop-color="#C5FFAA"/>
<stop offset="1" stop-color="#00BAC6"/>
</linearGradient>
</defs>
</svg>
