<svg xmlns="http://www.w3.org/2000/svg" width="30" height="30" viewBox="0 0 30 30" fill="none">
<path d="M20 12.5C20.6904 12.5 21.25 11.9404 21.25 11.25C21.25 10.5596 20.6904 10 20 10C19.3096 10 18.75 10.5596 18.75 11.25C18.75 11.9404 19.3096 12.5 20 12.5Z" stroke="url(#paint0_linear_8655_4189)" stroke-width="1.5" stroke-linecap="round" stroke-linejoin="round"/>
<path d="M7.5 13.75L12.5 11.25L16.875 15L15 17.5" stroke="url(#paint1_linear_8655_4189)" stroke-width="1.5" stroke-linecap="round" stroke-linejoin="round"/>
<path d="M3.75 20.9377C4.13912 21.1311 4.56562 21.2378 5 21.2502C5.48687 21.2604 5.9689 21.1519 6.40447 20.9341C6.84003 20.7163 7.21604 20.3958 7.5 20.0002C7.78396 19.6046 8.15997 19.284 8.59553 19.0662C9.0311 18.8484 9.51313 18.74 10 18.7502C10.4869 18.74 10.9689 18.8484 11.4045 19.0662C11.84 19.284 12.216 19.6046 12.5 20.0002C12.784 20.3958 13.16 20.7163 13.5955 20.9341C14.0311 21.1519 14.5131 21.2604 15 21.2502C15.4869 21.2604 15.9689 21.1519 16.4045 20.9341C16.84 20.7163 17.216 20.3958 17.5 20.0002C17.784 19.6046 18.16 19.284 18.5955 19.0662C19.0311 18.8484 19.5131 18.74 20 18.7502C20.4869 18.74 20.9689 18.8484 21.4045 19.0662C21.84 19.284 22.216 19.6046 22.5 20.0002C22.784 20.3958 23.16 20.7163 23.5955 20.9341C24.0311 21.1519 24.5131 21.2604 25 21.2502C25.4344 21.2378 25.8609 21.1311 26.25 20.9377" stroke="url(#paint2_linear_8655_4189)" stroke-width="1.5" stroke-linecap="round" stroke-linejoin="round"/>
<defs>
<linearGradient id="paint0_linear_8655_4189" x1="18.75" y1="10.7625" x2="21.3075" y2="10.9897" gradientUnits="userSpaceOnUse">
<stop stop-color="#C5FFAA"/>
<stop offset="1" stop-color="#00BAC6"/>
</linearGradient>
<linearGradient id="paint1_linear_8655_4189" x1="7.5" y1="13.1563" x2="16.9978" y2="14.4218" gradientUnits="userSpaceOnUse">
<stop stop-color="#C5FFAA"/>
<stop offset="1" stop-color="#00BAC6"/>
</linearGradient>
<linearGradient id="paint2_linear_8655_4189" x1="3.75" y1="19.5124" x2="17.9095" y2="30.8262" gradientUnits="userSpaceOnUse">
<stop stop-color="#C5FFAA"/>
<stop offset="1" stop-color="#00BAC6"/>
</linearGradient>
</defs>
</svg>
